<svg xml:space="preserve" viewBox="0 0 1000 1000" xmlns="http://www.w3.org/2000/svg">
  <circle cx="500" cy="500" r="465" fill="none" stroke="#333" stroke-width="70"/>
  <path fill="#333" d="M500.5 205a146.3 146.3 0 0 0-146.4 146.4v54.9c-28.4 5.1-56.9 12-56.9 20.9v194.6l-.4.2v73.6l.4-.1v18.1s0 7.9 9 11.7a8489 8489 0 0 0 188.2 68.3c3.8 1.4 4.8 1.4 5.8 1.4 1.4 0 2 0 5.8-1.4a8322.6 8322.6 0 0 0 188.6-68.3c8.2-3.4 8.6-11.4 8.6-11.4V427.1c0-8.9-28-16.1-56.6-20.9v-54.9a146 146 0 0 0-146-146.3zm0 69.9c47.7 0 76.5 28.8 76.5 76.5v47.7c-53.5-3.8-99-3.8-152.9 0v-47.7c0-47.7 28.8-76.5 76.4-76.5zm-.3 194.5c66.5 0 122.4 5.1 122.4 14.4v17.7a916.7 916.7 0 0 0-122.2-5.7c-51.2.6-91.3 4-122 8.4v-20.8c-.6-9.2 55.3-14 121.8-14zm21.8 99.9c34.3.4 70 4.9 100.6 10v21.5A924.4 924.4 0 0 0 500 595a958 958 0 0 0-121.5 8.3V581c35.4-5.4 79.5-10.4 126.6-11.7a405 405 0 0 1 17-.1zm-.3 99.3c25.3.3 51.4 2.8 75.6 6.2l-91 33s-4.5 1.4-5.8 1.4c-1.4 0-5.8-1.7-5.8-1.7l-86.2-31.4c29-3.5 61.9-6.4 96.2-7.4a408.2 408.2 0 0 1 17-.1z"/>
</svg>
